<svg width="344" height="323" viewBox="0 0 344 323" fill="none" xmlns="http://www.w3.org/2000/svg">
<path d="M270.429 117.044C313.184 117.044 343.113 101.011 343.113 86.5805C343.113 72.1504 313.184 56.1171 270.429 56.1171C227.673 56.1171 197.744 72.1504 197.744 86.5805C197.744 101.011 227.673 117.044 270.429 117.044Z" fill="url(#paint0_linear_2553_404)"/>
<path d="M198.279 107.424V135.216C198.279 149.646 228.208 165.679 270.964 165.679C313.719 165.679 343.648 149.646 343.648 135.216V107.424C329.218 119.717 302.496 128.268 270.964 128.268C239.431 127.733 212.709 119.717 198.279 107.424Z" fill="url(#paint1_linear_2553_404)"/>
<path d="M198.279 155.525V183.316C198.279 197.746 228.208 213.779 270.964 213.779C313.719 213.779 343.648 197.746 343.648 183.316V155.525C329.218 167.817 302.496 176.368 270.964 176.368C239.431 176.368 212.709 167.817 198.279 155.525Z" fill="url(#paint2_linear_2553_404)"/>
<path d="M198.279 204.16V231.951C198.279 246.381 228.208 262.414 270.964 262.414C313.719 262.414 343.648 246.381 343.648 231.951V204.16C329.218 216.452 302.496 225.003 270.964 225.003C239.431 225.003 212.709 216.986 198.279 204.16Z" fill="url(#paint3_linear_2553_404)"/>
<path d="M198.279 253.327V281.118C198.279 295.548 228.208 311.582 270.964 311.582C313.719 311.582 343.648 295.548 343.648 281.118V253.327C329.218 265.619 302.496 274.171 270.964 274.171C239.431 273.636 212.709 265.619 198.279 253.327Z" fill="url(#paint4_linear_2553_404)"/>
<path d="M133.077 198.815L95.6655 236.227C92.4588 239.433 88.7177 241.037 83.9077 241.037C79.6322 241.037 75.3566 239.433 72.1499 236.227L34.7389 198.815C12.8267 206.298 0 219.124 0 233.02C0 256.536 36.8766 274.707 83.3733 274.707C130.404 274.707 166.747 256.536 166.747 232.485C167.815 218.59 154.989 206.298 133.077 198.815Z" fill="url(#paint5_linear_2553_404)"/>
<path d="M1.06858 258.137V281.118C1.06858 304.634 37.9452 322.805 84.4419 322.805C131.473 322.805 167.815 304.634 167.815 281.118V258.137C152.316 274.705 121.853 285.394 84.4419 285.394C47.5652 285.394 16.5675 274.705 1.06858 258.137Z" fill="url(#paint6_linear_2553_404)"/>
<path d="M80.7005 228.209C81.7694 229.277 82.8382 229.812 84.4416 229.812C86.0449 229.812 87.1138 229.277 88.1827 228.209L135.214 181.177C136.817 179.574 137.352 177.436 136.283 175.298C135.214 173.161 133.61 172.092 131.473 172.092H116.508V50.7723C116.508 48.1 114.37 45.4278 111.164 45.4278C107.957 45.4278 105.819 47.5656 105.819 50.7723V177.436C105.819 180.108 107.957 182.781 111.164 182.781H118.646L84.4416 216.985L50.2371 182.781H57.7194C60.3916 182.781 63.0638 180.643 63.0638 177.436V50.7723C63.0638 48.1 60.926 45.4278 57.7194 45.4278C55.0472 45.4278 52.3749 47.5656 52.3749 50.7723V172.092H37.4105C35.2727 172.092 33.1349 173.161 32.6005 175.298C31.5316 177.436 32.0661 179.574 33.6694 181.177L80.7005 228.209Z" fill="url(#paint7_linear_2553_404)"/>
<path d="M84.4424 177.435C87.1146 177.435 89.7868 175.297 89.7868 172.091V140.558C89.7868 137.886 87.649 135.214 84.4424 135.214C81.7701 135.214 79.0979 137.352 79.0979 140.558V172.091C79.0979 174.763 81.7701 177.435 84.4424 177.435Z" fill="url(#paint8_linear_2553_404)"/>
<path d="M84.4424 117.045C87.1146 117.045 89.7868 114.907 89.7868 111.7V43.8255C89.7868 41.1532 87.649 38.481 84.4424 38.481C81.7701 38.481 79.0979 40.6188 79.0979 43.8255V111.7C79.0979 114.372 81.7701 117.045 84.4424 117.045Z" fill="url(#paint9_linear_2553_404)"/>
<path d="M84.4424 29.929C87.1146 29.929 89.7868 27.7912 89.7868 24.5845V5.34447C89.7868 2.67223 87.649 0 84.4424 0C81.7701 0 79.0979 2.13779 79.0979 5.34447V24.5845C79.0979 27.7912 81.7701 29.929 84.4424 29.929Z" fill="url(#paint10_linear_2553_404)"/>
<defs>
<linearGradient id="paint0_linear_2553_404" x1="7.28135e-07" y1="-27.7249" x2="350.977" y2="283.539" gradientUnits="userSpaceOnUse">
<stop offset="0.38" stop-color="#8C21F8"/>
<stop offset="0.66" stop-color="#A958FA"/>
</linearGradient>
<linearGradient id="paint1_linear_2553_404" x1="7.28135e-07" y1="-27.7249" x2="350.977" y2="283.539" gradientUnits="userSpaceOnUse">
<stop offset="0.38" stop-color="#8C21F8"/>
<stop offset="0.66" stop-color="#A958FA"/>
</linearGradient>
<linearGradient id="paint2_linear_2553_404" x1="7.28135e-07" y1="-27.7249" x2="350.977" y2="283.539" gradientUnits="userSpaceOnUse">
<stop offset="0.38" stop-color="#8C21F8"/>
<stop offset="0.66" stop-color="#A958FA"/>
</linearGradient>
<linearGradient id="paint3_linear_2553_404" x1="7.28135e-07" y1="-27.7249" x2="350.977" y2="283.539" gradientUnits="userSpaceOnUse">
<stop offset="0.38" stop-color="#8C21F8"/>
<stop offset="0.66" stop-color="#A958FA"/>
</linearGradient>
<linearGradient id="paint4_linear_2553_404" x1="7.28135e-07" y1="-27.7249" x2="350.977" y2="283.539" gradientUnits="userSpaceOnUse">
<stop offset="0.38" stop-color="#8C21F8"/>
<stop offset="0.66" stop-color="#A958FA"/>
</linearGradient>
<linearGradient id="paint5_linear_2553_404" x1="7.28135e-07" y1="-27.7249" x2="350.977" y2="283.539" gradientUnits="userSpaceOnUse">
<stop offset="0.38" stop-color="#8C21F8"/>
<stop offset="0.66" stop-color="#A958FA"/>
</linearGradient>
<linearGradient id="paint6_linear_2553_404" x1="7.28135e-07" y1="-27.7249" x2="350.977" y2="283.539" gradientUnits="userSpaceOnUse">
<stop offset="0.38" stop-color="#8C21F8"/>
<stop offset="0.66" stop-color="#A958FA"/>
</linearGradient>
<linearGradient id="paint7_linear_2553_404" x1="7.28135e-07" y1="-27.7249" x2="350.977" y2="283.539" gradientUnits="userSpaceOnUse">
<stop offset="0.38" stop-color="#8C21F8"/>
<stop offset="0.66" stop-color="#A958FA"/>
</linearGradient>
<linearGradient id="paint8_linear_2553_404" x1="7.28135e-07" y1="-27.7249" x2="350.977" y2="283.539" gradientUnits="userSpaceOnUse">
<stop offset="0.38" stop-color="#8C21F8"/>
<stop offset="0.66" stop-color="#A958FA"/>
</linearGradient>
<linearGradient id="paint9_linear_2553_404" x1="7.28135e-07" y1="-27.7249" x2="350.977" y2="283.539" gradientUnits="userSpaceOnUse">
<stop offset="0.38" stop-color="#8C21F8"/>
<stop offset="0.66" stop-color="#A958FA"/>
</linearGradient>
<linearGradient id="paint10_linear_2553_404" x1="7.28135e-07" y1="-27.7249" x2="350.977" y2="283.539" gradientUnits="userSpaceOnUse">
<stop offset="0.38" stop-color="#8C21F8"/>
<stop offset="0.66" stop-color="#A958FA"/>
</linearGradient>
</defs>
</svg>
