<svg width="261" height="314" viewBox="0 0 261 314" fill="none" xmlns="http://www.w3.org/2000/svg">
<g clip-path="url(#clip0_2547_344)">
<path d="M225.528 97.8446H205.174V22.6081C205.174 10.5622 195.412 0.800049 183.366 0.800049C171.32 0.800049 161.558 10.5622 161.558 22.6081V97.8446H99.4091V22.6081C99.4091 10.5622 89.647 0.800049 77.601 0.800049C65.555 0.800049 55.7929 10.5622 55.7929 22.6081V97.8446H35.4382C15.8678 97.8446 0 113.708 0 133.283C0 152.853 15.8678 168.717 35.4382 168.717H36.7108V226.509C36.7108 255.411 60.1453 278.846 89.051 278.846H111.947V364.986H139.207V278.846H164.284C193.189 278.846 216.624 255.411 216.624 226.509V168.717H225.528C245.099 168.717 260.967 152.853 260.967 133.283C260.967 113.708 245.099 97.8446 225.528 97.8446ZM109.406 254.496L130.483 192.709H86.8671L130.483 125.831L119.218 171.989L170.466 171.628L109.406 254.496Z" fill="url(#paint0_linear_2547_344)"/>
</g>
<defs>
<linearGradient id="paint0_linear_2547_344" x1="-49.5" y1="-39.5" x2="317.5" y2="376" gradientUnits="userSpaceOnUse">
<stop offset="0.38" stop-color="#8C21F8"/>
<stop offset="0.66" stop-color="#A958FA"/>
</linearGradient>
<clipPath id="clip0_2547_344">
<rect width="261" height="313.2" fill="white" transform="translate(0 0.800049)"/>
</clipPath>
</defs>
</svg>
