<svg width="300" height="300" viewBox="0 0 300 300" fill="none" xmlns="http://www.w3.org/2000/svg">
<circle cx="150" cy="150" r="116" fill="#F5EAFE"/>
<path d="M149.987 0C67.2284 0 0 67.2537 0 150.013C0 232.772 67.2284 300 149.987 300C232.746 300 300 232.772 300 150.013C300 67.2537 232.746 0 149.987 0ZM215.921 81.9442C221.423 81.9442 226.9 84.0166 231.057 88.1615C239.359 96.4633 239.359 110.168 231.057 118.482L140.157 209.382C131.855 217.684 118.138 217.684 109.836 209.382L69.4371 168.971C61.1353 160.669 61.1353 146.989 69.4371 138.675C77.7388 130.373 91.4188 130.373 99.7333 138.675L124.984 163.938L200.761 88.1735C204.918 84.0041 210.419 81.9442 215.921 81.9442Z" fill="url(#paint0_linear_2553_409)"/>
<defs>
<linearGradient id="paint0_linear_2553_409" x1="6.35652e-07" y1="-25.7663" x2="323.131" y2="243.422" gradientUnits="userSpaceOnUse">
<stop offset="0.38" stop-color="#8C21F8"/>
<stop offset="0.66" stop-color="#A958FA"/>
</linearGradient>
</defs>
</svg>
