<svg width="333" height="280" viewBox="0 0 333 280" fill="none" xmlns="http://www.w3.org/2000/svg">
<path d="M293.781 110.493L282.119 69.611V69.5899C280.105 62.7674 273.773 57.996 266.718 57.996H196.295L190.364 73.813H234.609C239.966 73.813 244.748 77.0134 246.794 81.9641C248.84 86.8885 247.717 92.5299 243.931 96.3155L143.756 196.49C141.326 198.937 137.92 200.35 134.435 200.35C131.978 200.35 129.579 199.664 127.491 198.373C122.277 195.146 119.988 188.819 121.939 182.993L142.512 121.27H97.5334C93.1626 121.27 89.0871 119.108 86.6301 115.491C84.168 111.848 83.6723 107.256 85.2962 103.191L103.375 57.996H65.43C58.3703 57.996 52.0382 62.7622 50.0294 69.611L38.367 110.493C32.0507 109.502 11.3514 106.887 3.38485 113.567C1.17046 115.422 0 117.9 0 120.742C0 132.953 10.5605 139.048 18.9647 141.373C15.6062 145.918 10.5447 154.612 10.5447 166.079V224.075C10.5447 225.53 11.7257 226.711 13.1809 226.711H15.8171V266.254C15.8171 273.519 21.7327 279.435 28.998 279.435H71.161C78.4264 279.435 84.3419 273.519 84.3419 266.254V226.711H247.785V266.254C247.785 273.519 253.701 279.435 260.966 279.435H303.145C310.41 279.435 316.326 273.519 316.326 266.254V226.711H318.962C320.417 226.711 321.598 225.53 321.598 224.075V166.079C321.598 154.638 316.558 145.96 313.199 141.405C321.435 139.127 332.143 133.037 332.143 120.737C332.143 117.895 330.972 115.417 328.758 113.561C320.791 106.881 300.097 109.496 293.776 110.488L293.781 110.493ZM34.2545 192.441C34.2545 180.794 43.6973 171.352 55.344 171.352C66.9906 171.352 76.4334 180.794 76.4334 192.441C76.4334 204.088 66.9906 213.531 55.344 213.531C43.6973 213.531 34.2545 204.088 34.2545 192.441ZM276.783 213.531C265.136 213.531 255.694 204.088 255.694 192.441C255.694 180.794 265.136 171.352 276.783 171.352C288.43 171.352 297.873 180.794 297.873 192.441C297.873 204.088 288.43 213.531 276.783 213.531ZM95.3401 109.56C94.8498 108.837 94.7496 107.915 95.0765 107.103L137.255 1.65552C137.656 0.653773 138.626 0 139.702 0H202.97C203.835 0 204.641 0.427062 205.137 1.13356C205.627 1.84533 205.743 2.75217 205.438 3.55884L175.137 84.3525H234.599C235.664 84.3525 236.629 84.9957 237.035 85.9816C237.446 86.9676 237.219 88.1011 236.465 88.8551L136.291 189.03C135.784 189.541 135.104 189.8 134.424 189.8C133.944 189.8 133.465 189.673 133.037 189.404C131.999 188.761 131.535 187.49 131.925 186.33L157.127 110.714H97.5176C96.6424 110.714 95.8251 110.277 95.3348 109.554L95.3401 109.56Z" fill="url(#paint0_linear_2553_373)"/>
<defs>
<linearGradient id="paint0_linear_2553_373" x1="7.03758e-07" y1="-24" x2="306" y2="279" gradientUnits="userSpaceOnUse">
<stop offset="0.38" stop-color="#8C21F8"/>
<stop offset="0.66" stop-color="#A958FA"/>
</linearGradient>
</defs>
</svg>
