<svg width="300" height="300" viewBox="0 0 300 300" fill="none" xmlns="http://www.w3.org/2000/svg">
<path fill-rule="evenodd" clip-rule="evenodd" d="M150 0C232.842 0 300 67.1575 300 150C300 232.842 232.842 300 150 300C67.1575 300 0 232.842 0 150C0 67.1575 67.1575 0 150 0ZM263.779 127.289C266.423 122.44 264.637 116.366 259.788 113.721C254.94 111.077 248.866 112.863 246.221 117.711L245.257 119.479C232.354 79.1775 194.584 50 150 50C94.7715 50 50 94.7715 50 150C50 205.229 94.7715 250 150 250C155.523 250 160 245.523 160 240C160 234.477 155.523 230 150 230C105.817 230 70 194.183 70 150C70 105.817 105.817 70 150 70C185.023 70 214.79 92.5055 225.627 123.844L224.144 122.526C220.016 118.857 213.695 119.229 210.026 123.357C206.357 127.484 206.728 133.805 210.856 137.474L233.356 157.474C235.634 159.499 238.713 160.375 241.716 159.852C244.719 159.329 247.319 157.464 248.779 154.788L263.779 127.289ZM150 120C166.569 120 180 133.431 180 150C180 166.569 166.569 180 150 180C133.431 180 120 166.569 120 150C120 133.431 133.431 120 150 120Z" fill="url(#paint0_linear_2553_401)"/>
<defs>
<linearGradient id="paint0_linear_2553_401" x1="6.35652e-07" y1="-25.7663" x2="323.131" y2="243.422" gradientUnits="userSpaceOnUse">
<stop offset="0.38" stop-color="#8C21F8"/>
<stop offset="0.66" stop-color="#A958FA"/>
</linearGradient>
</defs>
</svg>
