<svg width="290" height="291" viewBox="0 0 290 291" fill="none" xmlns="http://www.w3.org/2000/svg">
<path d="M155.357 108.75C155.357 104.63 153.72 100.678 150.807 97.7649C147.893 94.8514 143.942 93.2146 139.821 93.2146H134.643V227.992C134.643 229.526 134.314 231.041 133.677 232.436C133.04 233.831 132.11 235.072 130.95 236.076C129.851 237.039 128.557 237.752 127.156 238.167C125.756 238.581 124.282 238.688 122.836 238.479C121.601 238.304 120.355 238.215 119.107 238.215C118.589 238.215 118.04 238.215 117.512 238.261C111.31 238.723 105.473 241.371 101.041 245.733C96.6083 250.095 93.8679 255.889 93.3074 262.083C93.0078 265.719 93.487 269.377 94.713 272.813C95.9391 276.25 97.8839 279.385 100.418 282.01C102.931 284.638 105.969 286.707 109.334 288.083C112.7 289.46 116.317 290.113 119.951 290.001C126.821 289.554 133.256 286.48 137.92 281.416C142.584 276.352 145.12 269.686 145 262.803V213.606C144.992 210.882 145.525 208.184 146.568 205.667C147.61 203.15 149.142 200.866 151.074 198.946L152.317 197.703C153.287 196.739 154.055 195.592 154.577 194.329C155.098 193.065 155.364 191.711 155.357 190.344V108.75ZM119.107 279.643C116.034 279.643 113.031 278.732 110.476 277.025C107.921 275.318 105.93 272.892 104.754 270.053C103.578 267.214 103.27 264.09 103.87 261.077C104.469 258.063 105.949 255.295 108.122 253.122C110.294 250.95 113.063 249.47 116.076 248.87C119.09 248.271 122.214 248.579 125.052 249.755C127.891 250.93 130.317 252.922 132.025 255.476C133.732 258.031 134.643 261.035 134.643 264.108C134.643 268.228 133.006 272.18 130.092 275.093C127.179 278.007 123.227 279.643 119.107 279.643Z" fill="url(#paint0_linear_2553_372)"/>
<path d="M213.099 204.393C209.732 202.366 205.942 201.145 202.025 200.825C198.109 200.506 194.171 201.096 190.52 202.549C185.986 204.362 182.043 207.395 179.127 211.311C178.259 212.478 177.15 213.443 175.874 214.141C174.599 214.839 173.188 215.254 171.737 215.356C170.24 215.471 168.735 215.26 167.328 214.736C165.92 214.212 164.644 213.388 163.586 212.321L157.988 206.728C156.297 208.612 155.36 211.053 155.357 213.585V218.763L180.732 244.138C185.458 248.974 191.831 251.852 198.583 252.2C205.335 252.549 211.971 250.342 217.169 246.018C220.197 243.331 222.548 239.968 224.032 236.201C225.516 232.434 226.09 228.371 225.708 224.341C225.325 220.258 223.983 216.323 221.792 212.857C219.6 209.391 216.622 206.491 213.099 204.393ZM210.918 237.696C208.379 240.24 205.036 241.824 201.459 242.179C197.883 242.534 194.293 241.638 191.303 239.644C188.313 237.649 186.107 234.68 185.061 231.241C184.015 227.802 184.194 224.107 185.566 220.786C186.939 217.464 189.421 214.721 192.59 213.024C195.759 211.327 199.417 210.781 202.943 211.48C206.469 212.178 209.643 214.078 211.926 216.854C214.208 219.631 215.457 223.113 215.46 226.707C215.466 228.749 215.067 230.771 214.287 232.657C213.506 234.543 212.365 236.256 210.918 237.696Z" fill="url(#paint1_linear_2553_372)"/>
<path d="M51.7858 93.2144C57.5059 93.2144 62.143 88.5774 62.143 82.8573C62.143 77.1372 57.5059 72.5001 51.7858 72.5001C46.0657 72.5001 41.4287 77.1372 41.4287 82.8573C41.4287 88.5774 46.0657 93.2144 51.7858 93.2144Z" fill="url(#paint2_linear_2553_372)"/>
<path d="M238.215 93.2144C243.935 93.2144 248.572 88.5774 248.572 82.8573C248.572 77.1372 243.935 72.5001 238.215 72.5001C232.495 72.5001 227.858 77.1372 227.858 82.8573C227.858 88.5774 232.495 93.2144 238.215 93.2144Z" fill="url(#paint3_linear_2553_372)"/>
<path d="M129.464 64.3242C130.838 64.3242 132.155 64.8698 133.126 65.841C134.097 66.8121 134.643 68.1293 134.643 69.5028V82.8583H139.822C146.686 82.8666 153.268 85.5972 158.122 90.4513C162.976 95.3053 165.706 101.887 165.715 108.751V118.637C173.613 114.077 179.785 107.039 183.275 98.6129C186.765 90.1873 187.378 80.8455 185.017 72.0364C182.657 63.2273 177.456 55.4432 170.22 49.8913C162.985 44.3395 154.12 41.3303 145 41.3303C135.88 41.3303 127.015 44.3395 119.78 49.8913C112.545 55.4432 107.344 63.2273 104.983 72.0364C102.623 80.8455 103.235 90.1873 106.725 98.6129C110.215 107.039 116.388 114.077 124.286 118.637V69.5028C124.286 68.1293 124.831 66.8121 125.803 65.841C126.774 64.8698 128.091 64.3242 129.464 64.3242Z" fill="url(#paint4_linear_2553_372)"/>
<path d="M122.147 200.22C122.793 200.844 123.521 201.377 124.312 201.804V176.072H98.0201L122.147 200.22Z" fill="url(#paint5_linear_2553_372)"/>
<path d="M93.2143 82.8574C93.2086 73.5196 95.7278 64.354 100.505 56.3308C105.283 48.3077 112.14 41.7256 120.353 37.2813C128.565 32.837 137.826 30.6959 147.156 31.0847C156.486 31.4734 165.537 34.3776 173.351 39.4897C181.165 44.6018 187.452 51.7317 191.545 60.1245C195.638 68.5173 197.386 77.8607 196.604 87.1657C195.821 96.4706 192.537 105.391 187.099 112.982C181.662 120.573 174.273 126.553 165.714 130.288V145H238.629C239.588 137.929 242.656 131.312 247.432 126.01C253.105 119.68 260.815 115.534 269.224 114.291L269.286 51.3716C261.544 50.2589 254.37 46.6721 248.835 41.1468C243.299 35.6215 239.699 28.454 238.572 20.7145H51.3714C50.2586 28.4561 46.6719 35.6302 41.1466 41.1658C35.6213 46.7014 28.4538 50.3015 20.7142 51.4286V114.343C28.4559 115.456 35.63 119.043 41.1656 124.568C46.7011 130.093 50.3012 137.261 51.4284 145H124.286V130.288C115.056 126.26 107.2 119.627 101.682 111.203C96.1631 102.779 93.2205 92.9283 93.2143 82.8574ZM238.215 62.1431C242.311 62.1431 246.316 63.358 249.723 65.6341C253.129 67.9102 255.784 71.1453 257.352 74.9304C258.92 78.7154 259.33 82.8804 258.531 86.8986C257.732 90.9167 255.759 94.6077 252.862 97.5046C249.965 100.402 246.274 102.374 242.256 103.174C238.238 103.973 234.073 103.563 230.287 101.995C226.502 100.427 223.267 97.7721 220.991 94.3657C218.715 90.9592 217.5 86.9543 217.5 82.8574C217.5 77.3636 219.683 72.0949 223.567 68.2102C227.452 64.3255 232.721 62.1431 238.215 62.1431ZM51.7857 103.572C47.6888 103.572 43.6839 102.357 40.2774 100.081C36.871 97.8046 34.216 94.5695 32.6482 90.7844C31.0803 86.9994 30.6701 82.8344 31.4694 78.8162C32.2687 74.7981 34.2415 71.1071 37.1385 68.2102C40.0354 65.3132 43.7263 63.3404 47.7445 62.5411C51.7627 61.7418 55.9277 62.152 59.7127 63.7199C63.4978 65.2877 66.7329 67.9427 69.009 71.3491C71.2851 74.7556 72.5 78.7605 72.5 82.8574C72.5 88.3512 70.3176 93.6199 66.4329 97.5046C62.5482 101.389 57.2795 103.572 51.7857 103.572Z" fill="url(#paint6_linear_2553_372)"/>
<path d="M0 165.715H124.286V155.357H51.3715C48.8782 155.366 46.467 154.466 44.5893 152.826C42.7115 151.185 41.4958 148.917 41.1697 146.445C40.4433 141.407 38.2351 136.699 34.8259 132.919C30.7664 128.39 25.2498 125.426 19.2332 124.54C16.7777 124.185 14.5312 122.961 12.9022 121.089C11.2732 119.218 10.3701 116.824 10.3572 114.343V51.3715C10.3483 48.8782 11.2483 46.467 12.8887 44.5893C14.5291 42.7115 16.7975 41.4958 19.2695 41.1697C24.3074 40.4424 29.0155 38.2343 32.7959 34.8259C37.3242 30.7664 40.2886 25.2498 41.1749 19.2332C41.5296 16.7777 42.754 14.5312 44.6253 12.9022C46.4967 11.2732 48.8905 10.3701 51.3715 10.3572H238.629C241.122 10.3483 243.533 11.2483 245.411 12.8887C247.289 14.5291 248.505 16.7976 248.831 19.2695C249.555 24.3084 251.763 29.0174 255.174 32.7959C259.234 37.3242 264.751 40.2886 270.767 41.1749C273.223 41.5296 275.469 42.754 277.098 44.6253C278.727 46.4967 279.63 48.8905 279.643 51.3715V114.343C279.63 116.83 278.723 119.23 277.086 121.103C275.45 122.976 273.194 124.198 270.731 124.545C264.735 125.439 259.24 128.399 255.195 132.913C251.775 136.692 249.559 141.405 248.831 146.45C248.503 148.921 247.287 151.188 245.41 152.828C243.532 154.467 241.121 155.366 238.629 155.357H165.715V165.715H290V0H0V165.715Z" fill="url(#paint7_linear_2553_372)"/>
<defs>
<linearGradient id="paint0_linear_2553_372" x1="1.44912e-05" y1="-66.5" x2="258" y2="281.5" gradientUnits="userSpaceOnUse">
<stop offset="0.38" stop-color="#8C21F8"/>
<stop offset="0.66" stop-color="#A958FA"/>
</linearGradient>
<linearGradient id="paint1_linear_2553_372" x1="1.44912e-05" y1="-66.5" x2="258" y2="281.5" gradientUnits="userSpaceOnUse">
<stop offset="0.38" stop-color="#8C21F8"/>
<stop offset="0.66" stop-color="#A958FA"/>
</linearGradient>
<linearGradient id="paint2_linear_2553_372" x1="1.44912e-05" y1="-66.5" x2="258" y2="281.5" gradientUnits="userSpaceOnUse">
<stop offset="0.38" stop-color="#8C21F8"/>
<stop offset="0.66" stop-color="#A958FA"/>
</linearGradient>
<linearGradient id="paint3_linear_2553_372" x1="1.44912e-05" y1="-66.5" x2="258" y2="281.5" gradientUnits="userSpaceOnUse">
<stop offset="0.38" stop-color="#8C21F8"/>
<stop offset="0.66" stop-color="#A958FA"/>
</linearGradient>
<linearGradient id="paint4_linear_2553_372" x1="1.44912e-05" y1="-66.5" x2="258" y2="281.5" gradientUnits="userSpaceOnUse">
<stop offset="0.38" stop-color="#8C21F8"/>
<stop offset="0.66" stop-color="#A958FA"/>
</linearGradient>
<linearGradient id="paint5_linear_2553_372" x1="1.44912e-05" y1="-66.5" x2="258" y2="281.5" gradientUnits="userSpaceOnUse">
<stop offset="0.38" stop-color="#8C21F8"/>
<stop offset="0.66" stop-color="#A958FA"/>
</linearGradient>
<linearGradient id="paint6_linear_2553_372" x1="1.44912e-05" y1="-66.5" x2="258" y2="281.5" gradientUnits="userSpaceOnUse">
<stop offset="0.38" stop-color="#8C21F8"/>
<stop offset="0.66" stop-color="#A958FA"/>
</linearGradient>
<linearGradient id="paint7_linear_2553_372" x1="1.44912e-05" y1="-66.5" x2="258" y2="281.5" gradientUnits="userSpaceOnUse">
<stop offset="0.38" stop-color="#8C21F8"/>
<stop offset="0.66" stop-color="#A958FA"/>
</linearGradient>
</defs>
</svg>
