<svg width="137" height="185" viewBox="0 0 137 185" fill="none" xmlns="http://www.w3.org/2000/svg">
<path d="M68.5891 0C50.3783 0 32.9401 7.16777 20.1477 20.1477C7.35611 32.9394 0 50.379 0 68.5891C0 123.041 64.1403 184.077 64.1403 184.077C64.1403 184.077 137 119.551 137 68.5891C137 56.5772 133.897 44.754 127.895 34.2946C121.885 23.8343 113.165 15.304 102.903 9.30268C92.4273 3.10374 80.6041 0.000387595 68.5926 0.000387595L68.5891 0ZM68.5891 102.31C59.0977 102.31 50.1814 98.6317 43.3996 91.8499C36.8147 85.265 32.9394 76.1518 32.9394 66.6604C32.9394 57.169 36.6178 48.2527 43.3996 41.4709C49.9845 34.8859 59.0977 31.0106 68.5891 31.0106C78.0805 31.0106 86.9969 34.6891 93.7787 41.4709C100.364 48.0558 104.239 57.169 104.239 66.6604C104.239 76.1518 100.56 85.0681 93.7787 91.8499C86.9969 98.4348 78.0805 102.31 68.5891 102.31Z" fill="#27153C"/>
</svg>
