<svg width="258" height="323" viewBox="0 0 258 323" fill="none" xmlns="http://www.w3.org/2000/svg">
<path fill-rule="evenodd" clip-rule="evenodd" d="M69.5449 189.424C68.9981 197.64 70.0076 205.716 72.9658 213.455L124.671 237.527H154.589C167.628 237.527 174.428 248.911 173.909 260.225L235.962 237.849C252.365 231.933 253.795 209.066 252.323 193.646C249.519 164.133 227.648 131.776 201.023 102.823C199.565 101.238 198.346 99.8924 197.126 98.5605C192.738 93.7234 188.392 88.9427 184.045 84.8909H134.892C131.934 87.1762 129.06 89.6997 126.228 92.4479C122.779 95.7846 119.428 99.3598 116.049 103.131C95.3419 126.264 71.5621 158.637 69.5163 189.425L69.5449 189.424ZM193.621 200.724C179.783 217.114 156.79 217.114 142.953 200.724C140.079 197.318 137.822 193.462 136.196 189.368H125.835V175.04H133.069V170.09H125.835V155.762H136.196C146.431 130.021 176.279 123.866 193.636 144.406L182.729 153.645C173.784 143.06 159.96 144.448 152.277 155.762H164.194V170.09H147.454V175.039H164.194V189.368H152.277C159.946 200.696 173.784 202.084 182.729 191.499L193.636 200.738L193.621 200.724ZM186.317 58.9968H132.943C128.625 58.9968 125.778 67.633 129.774 72.568C130.657 73.6616 131.779 74.3486 132.943 74.3486H186.317C190.607 74.3486 193.495 65.7544 189.485 60.7913C188.588 59.6838 187.466 58.9968 186.317 58.9968ZM125.273 4.62864C120.506 4.57256 118.683 5.94653 118.655 8.23177C118.557 16.728 128.96 35.3886 135.619 48.4552H181.144C187.187 35.7249 193.019 22.5883 194.827 12.6478C196.187 5.21725 194.743 0.0578776 187.593 0.00188715C180.219 -0.054193 173.335 1.13752 167.306 3.85733C171.022 5.83415 171.414 6.05847 174.919 8.39974C177.639 10.2223 178.354 13.8814 176.546 16.6016C174.723 19.3215 171.064 20.0365 168.344 18.2279C154.253 8.79246 142.629 4.83896 125.273 4.62864ZM38.1249 239.017L57.2342 227.03C63.8798 222.866 71.4787 222.529 78.4747 226.063L120.241 247.191C121.125 247.723 122.176 248.032 123.298 248.032H155.432C158.923 248.032 161.208 250.317 162.231 253.247C164.166 258.743 162.343 267.197 155.432 267.197H95.1019C91.8352 267.197 89.1716 269.847 89.1716 273.127C89.1716 276.394 91.8214 279.058 95.1019 279.058H154.588C160.504 279.058 165.075 276.772 168.286 273.239L248.101 246.321C254.522 244.162 261.195 257.074 255.728 259.612L129.602 318.258C117.545 323.866 105.389 324.497 92.8422 320.165L38.3448 301.364C37.6017 301.028 36.7605 300.831 35.8913 300.831H0V239.927L34.98 239.899C36.0596 239.899 37.1391 239.619 38.1065 239.002L38.1249 239.017Z" fill="url(#paint0_linear_2553_402)"/>
<defs>
<linearGradient id="paint0_linear_2553_402" x1="5.46127e-07" y1="-27.7417" x2="326.155" y2="189.076" gradientUnits="userSpaceOnUse">
<stop offset="0.38" stop-color="#8C21F8"/>
<stop offset="0.66" stop-color="#A958FA"/>
</linearGradient>
</defs>
</svg>
