<svg width="300" height="343" viewBox="0 0 300 343" fill="none" xmlns="http://www.w3.org/2000/svg">
<path d="M164.868 12.5052L146.425 57.2502C141.766 67.2356 157.263 73.6635 161.039 63.2947L179.513 18.539C184.258 7.09451 168.393 3.97377 164.868 12.5052Z" fill="url(#paint0_linear_2547_349)"/>
<path d="M116.47 0.000574945C112.114 0.0857832 108.615 3.69116 108.669 8.07406L108.647 55.109C108.333 59.6943 111.976 63.5766 116.55 63.5766C121.125 63.5766 124.757 59.6943 124.453 55.109L124.475 8.07406C124.565 3.60062 120.933 -0.0526802 116.47 0.000574945Z" fill="url(#paint1_linear_2547_349)"/>
<path d="M211.163 44.1853L178.044 77.4698C170.577 84.9574 181.809 96.1304 189.275 88.6534L222.395 55.3582C230.607 47.1197 218.209 37.0917 211.163 44.1853Z" fill="url(#paint2_linear_2547_349)"/>
<path d="M62.0478 59.9448C80.1545 82.6315 82.8705 95.9133 83.2859 141.462C83.5362 144.375 86.3641 146.351 89.1706 145.563L276.229 99.8914C286.348 97.4151 296.887 103.854 299.331 112.572C301.579 120.682 298.447 129.922 285.549 133.676L125.805 179.806C115.905 182.469 108.497 190.862 106.25 201.412C104.034 211.866 106.947 222.714 114.105 230.649C117.651 234.579 122.04 237.471 126.753 239.042C123.478 242.764 121.092 247.414 120.011 252.617C117.763 263.06 120.676 273.961 127.834 281.907C131.247 285.704 135.439 288.441 139.949 290.06C137.265 293.181 135.29 297.01 134.374 301.292C132.408 310.249 134.624 319.888 141.116 326.38C143.225 328.489 143.278 330.486 139.433 331.519L128.052 334.598C100.008 342.17 73.3805 347.496 50.9441 337.175C27.0112 326.189 9.53819 299.699 1.73631 269.69C-2.39096 239.399 1.07062 207.866 9.67133 182.735L28.5929 127.483C35.5214 107.262 32.2249 94.3849 23.4538 71.0857C11.8974 40.3362 51.1997 46.3807 62.0478 59.9448Z" fill="url(#paint3_linear_2547_349)"/>
<path d="M213.331 176.625C218.491 182.286 221.34 190.855 219.072 198.156C216.494 206.613 211.882 211.167 204.533 213.137L139.439 230.61C133.166 232.266 126.179 230.109 121.071 224.4C115.89 218.649 113.813 210.911 115.41 203.338C117.024 195.85 121.961 190.525 128.224 188.805L194.542 170.581C201.599 168.637 209.219 172.141 213.331 176.625Z" fill="url(#paint4_linear_2547_349)"/>
<path d="M227.059 227.884C232.22 233.55 234.403 241.895 232.821 249.383C229.637 257.786 225.392 262.228 218.07 264.443L153.168 281.815C146.894 283.498 139.939 281.357 134.8 275.68C129.618 269.939 127.563 262.116 129.171 254.543C130.752 247.055 135.695 241.783 141.952 240.063L208.75 221.706C215.577 219.81 223.166 223.618 227.059 227.884Z" fill="url(#paint5_linear_2547_349)"/>
<path d="M227.858 278.172C232.571 282.832 234.212 290.469 232.901 296.955C231.655 303.053 228.023 307.729 223.198 309.023C203.031 314.316 162.732 324.935 162.732 324.935C157.679 326.267 152.167 324.621 148.023 320.111C143.843 315.515 142.144 309.326 143.475 303.239C144.775 297.291 148.801 293.046 153.823 291.704L215.418 274.812C221.484 273.15 224.397 274.742 227.858 278.172Z" fill="url(#paint6_linear_2547_349)"/>
<defs>
<linearGradient id="paint0_linear_2547_349" x1="10" y1="41.5" x2="199.5" y2="343" gradientUnits="userSpaceOnUse">
<stop offset="0.38" stop-color="#8C21F8"/>
<stop offset="0.66" stop-color="#A958FA"/>
</linearGradient>
<linearGradient id="paint1_linear_2547_349" x1="10" y1="41.5" x2="199.5" y2="343" gradientUnits="userSpaceOnUse">
<stop offset="0.38" stop-color="#8C21F8"/>
<stop offset="0.66" stop-color="#A958FA"/>
</linearGradient>
<linearGradient id="paint2_linear_2547_349" x1="10" y1="41.5" x2="199.5" y2="343" gradientUnits="userSpaceOnUse">
<stop offset="0.38" stop-color="#8C21F8"/>
<stop offset="0.66" stop-color="#A958FA"/>
</linearGradient>
<linearGradient id="paint3_linear_2547_349" x1="10" y1="41.5" x2="199.5" y2="343" gradientUnits="userSpaceOnUse">
<stop offset="0.38" stop-color="#8C21F8"/>
<stop offset="0.66" stop-color="#A958FA"/>
</linearGradient>
<linearGradient id="paint4_linear_2547_349" x1="10" y1="41.5" x2="199.5" y2="343" gradientUnits="userSpaceOnUse">
<stop offset="0.38" stop-color="#8C21F8"/>
<stop offset="0.66" stop-color="#A958FA"/>
</linearGradient>
<linearGradient id="paint5_linear_2547_349" x1="10" y1="41.5" x2="199.5" y2="343" gradientUnits="userSpaceOnUse">
<stop offset="0.38" stop-color="#8C21F8"/>
<stop offset="0.66" stop-color="#A958FA"/>
</linearGradient>
<linearGradient id="paint6_linear_2547_349" x1="10" y1="41.5" x2="199.5" y2="343" gradientUnits="userSpaceOnUse">
<stop offset="0.38" stop-color="#8C21F8"/>
<stop offset="0.66" stop-color="#A958FA"/>
</linearGradient>
</defs>
</svg>
