<svg width="300" height="279" viewBox="0 0 300 279" fill="none" xmlns="http://www.w3.org/2000/svg">
<path d="M150 187.278C110.625 186.965 116.25 134.061 116.25 134.061C117.812 99 147.188 99.313 150 99.313C152.812 99.313 182.188 99 183.75 134.061C183.75 134.061 189.375 186.652 150 187.278C150.312 187.278 150.312 187.278 150 187.278ZM242.188 205.122C274.062 204.809 269.375 162.548 269.375 162.548C268.125 134.374 244.375 134.374 242.188 134.687C240 134.687 216.25 134.374 215 162.548C215 162.548 210.312 204.809 242.188 205.122ZM300 253.643C300 253.957 300 254.27 300 254.27C300 252.391 300 250.513 300 248.635V248.009C299.688 238.93 298.125 232.67 288.75 226.722C276.25 218.896 262.5 212.322 262.5 212.322L251.562 247.07L245 228.913C256.25 213.261 244.063 212.322 242.188 212.322C240 212.322 228.125 213.261 239.375 228.913L232.812 247.07L221.875 212.322C221.875 212.322 217.812 214.2 212.5 217.33C211.25 216.391 209.688 215.139 208.125 214.2C192.812 204.496 175.625 196.043 175.625 196.043L161.875 239.243L153.75 216.704C167.812 196.983 152.812 196.043 150 196.043C147.188 196.043 132.188 196.983 146.25 216.704L138.125 239.243L124.375 196.043C124.375 196.043 107.188 204.496 91.875 214.2C90.3125 215.139 88.75 216.391 87.5 217.33C81.875 214.2 77.8125 212.322 77.8125 212.322L66.875 247.07L60.3125 228.913C71.5625 213.261 59.375 212.322 57.5 212.322C55.3125 212.322 43.4375 213.261 54.6875 228.913L48.125 247.07L37.5 212.322C37.5 212.322 23.75 218.896 11.25 226.722C1.875 232.67 0.3125 238.93 0 248.009V248.948C0 250.826 0 252.704 0 254.583C0 254.583 0 254.27 0 253.957V279H57.8125H78.125H115.625H150H184.375H222.188H242.188H300V253.643ZM57.8125 205.122C89.6875 204.809 85 162.548 85 162.548C83.75 134.374 60 134.374 57.8125 134.687C55.625 134.687 31.875 134.374 30.625 162.548C30.625 162.548 25.9375 204.809 57.8125 205.122ZM284.062 91.8C266.25 109.643 239.375 112.461 218.75 100.252C210.625 106.513 201.875 107.452 195.937 106.513C194.062 106.2 193.437 103.383 195.312 102.443C200.938 99.6261 204.375 94.3043 206.25 89.9217L205.625 89.6087C186.875 68.3217 187.5 36.0783 207.812 15.7304C228.75 -5.24348 262.812 -5.24348 284.062 15.7304C305 36.7043 305 70.8261 284.062 91.8ZM263.438 76.7739C262.812 75.2087 262.188 73.6435 261.25 72.0783C260.625 70.8261 259.688 70.2 258.125 70.513C256.25 70.8261 254.375 71.4522 252.187 72.0783C248.437 72.7043 244.688 73.0174 240.938 71.7652C236.25 70.2 233.75 67.0696 232.188 62.687H244.688C245.625 62.687 246.562 61.7478 246.562 60.8087V56.7391C246.562 55.8 245.625 54.8609 244.688 54.8609H230.938C230.938 53.6087 230.938 52.6696 230.938 51.7304H244.688C245.625 51.7304 246.562 50.7913 246.562 49.8522V45.7826C246.562 44.8435 245.625 43.9043 244.688 43.9043H232.5C234.062 40.4609 235.938 37.9565 239.375 36.7043C243.438 35.1391 247.5 35.1391 251.562 36.0783C253.438 36.3913 255.312 37.0174 257.5 37.6435C259.062 37.9565 259.688 37.6435 260.312 36.0783C260.938 34.513 261.562 32.9478 262.188 31.3826C262.812 29.8174 262.5 28.8783 260.938 27.9391C260.625 27.6261 260.312 27.6261 260 27.313C254.062 25.1217 248.125 24.1826 242.188 25.1217C237.812 25.7478 233.75 27.313 230.312 30.1304C225.937 33.5739 223.125 37.9565 221.25 43.2783L220.937 43.9043H214.687C213.75 43.9043 212.812 44.8435 212.812 45.7826V49.8522C212.812 50.7913 213.75 51.7304 214.687 51.7304H219.688C219.688 52.6696 219.688 53.9217 219.688 54.8609H214.687C213.75 54.8609 212.812 55.8 212.812 56.7391V60.8087C212.812 61.7478 213.75 62.687 214.687 62.687H221.875C222.188 64.2522 222.812 65.5043 223.125 67.0696C226.25 74.2696 230.938 79.2783 238.438 81.7826C244.688 83.6609 250.938 83.6609 257.188 82.0956C258.75 81.7826 260.312 81.1565 261.875 80.2174C263.75 79.5913 264.062 78.3391 263.438 76.7739Z" fill="url(#paint0_linear_2553_371)"/>
<defs>
<linearGradient id="paint0_linear_2553_371" x1="133.646" y1="17.1502" x2="133.646" y2="279" gradientUnits="userSpaceOnUse">
<stop offset="0.38" stop-color="#8C21F8"/>
<stop offset="0.66" stop-color="#A958FA"/>
</linearGradient>
</defs>
</svg>
