<svg width="715" height="659" viewBox="0 0 715 659" fill="none" xmlns="http://www.w3.org/2000/svg">
<path d="M487.5 0.817622C480.6 2.11762 472.8 6.21762 467.5 11.1176C462.8 15.5176 456.3 25.9176 456.3 29.0176C456.3 30.1176 454.6 30.6176 449.5 30.9176C437.8 31.8176 427 38.1176 420.8 47.8176C416.8 54.0176 415 62.0176 415.5 71.6176C415.9 79.8176 417.3 84.3176 423 94.8176C423.2 95.1176 420.5 95.7176 416.9 95.9176C399.1 97.4176 386.5 110.818 385.5 129.318C384.8 142.818 389.1 153.718 398.9 162.718C407.2 170.318 409.6 170.918 432.1 170.518C455 170.118 456.4 169.718 465.1 160.218C472 152.618 474.8 143.918 474 132.818L473.4 125.118L476.5 123.818C481.4 121.618 490.5 111.618 493.7 104.918C496.6 98.9176 496.6 98.9176 499 100.518C500.6 101.518 503.8 102.118 507.7 102.118C519.3 102.318 532.3 93.4176 537 82.2176C538.6 78.2176 539 77.9176 541.3 78.5176C542.7 78.9176 547.2 79.2176 551.3 79.2176C557.6 79.2176 559.8 78.7176 565.3 76.1176C589.6 64.5176 595.5 33.1176 577.2 12.4176C565.6 -0.782377 542.6 -3.28238 528.9 7.11762L524.7 10.4176L521.2 8.01762C511.3 1.11762 499 -1.48238 487.5 0.817622Z" fill="url(#paint0_linear_2540_3983)"/>
<path d="M211.9 121.918C211.6 122.618 211 140.118 210.4 160.718C209.7 181.318 209.2 199.918 209.1 202.018L208.9 205.818L266.3 206.218V201.718C266.3 199.218 265.6 182.118 264.8 163.718C264 145.318 263.3 128.118 263.3 125.418V120.718H237.8C218.2 120.718 212.1 121.018 211.9 121.918Z" fill="url(#paint1_linear_2540_3983)"/>
<path d="M132 162.418C131.8 162.818 131.2 173.218 130.8 185.418L130.1 207.718H170.5L169.7 185.418C169.4 173.218 168.8 163.018 168.6 162.718C167.8 161.818 132.6 161.518 132 162.418Z" fill="url(#paint2_linear_2540_3983)"/>
<path d="M323.6 186.818C321.9 187.318 319.5 188.918 318.4 190.318C316.5 192.718 316.3 194.318 316.3 208.418C316.3 220.218 316.7 224.518 317.8 226.718C321.1 233.118 313.3 232.718 446.8 232.718C577.8 232.718 573 232.918 576.7 227.618C579.1 224.218 579.1 194.218 576.7 190.818C572.9 185.518 577.8 185.718 447.6 185.818C377.1 185.818 325.5 186.318 323.6 186.818Z" fill="url(#paint3_linear_2540_3983)"/>
<path d="M129.3 227.418C129.3 231.218 129 242.618 128.6 252.918L128 271.718H173.5L172.9 266.918C172.6 264.318 172.1 252.918 171.7 241.418L171.1 220.718H129.3V227.418Z" fill="url(#paint4_linear_2540_3983)"/>
<path d="M206.9 244.918C206.5 257.718 205.1 297.218 203.8 332.718C202.4 368.218 201.3 398.918 201.3 400.918V404.718H237.6C257.6 404.718 274.2 404.518 274.4 404.318C274.9 403.718 269.5 266.218 267.7 232.918L267 221.718H207.6L206.9 244.918Z" fill="url(#paint5_linear_2540_3983)"/>
<path d="M339.8 245.218C339.6 245.718 339.2 259.918 338.9 276.718C337.8 336.418 332.9 374.418 317.9 440.218C314.9 453.418 311.5 469.118 310.5 475.018L308.5 485.818L311.2 486.918C312.6 487.418 326.4 491.818 341.8 496.718L369.8 505.418V514.818C369.9 520.018 370 526.618 370.1 529.418L370.3 534.718H515.3V604.718L613.6 604.518L613 593.918C612 574.818 606.6 546.818 599.3 522.218C581.2 462.018 568.3 408.318 562.3 369.218C557.8 339.618 554.3 292.018 554.3 261.018V244.718L447.2 244.518C376.4 244.318 339.9 244.518 339.8 245.218Z" fill="url(#paint6_linear_2540_3983)"/>
<path d="M637.9 252.418C637.6 253.418 637.1 260.118 636.7 267.418L636 280.618L621.9 288.318C596.2 302.418 596.8 301.918 596.5 305.618C595.9 311.618 598 312.718 610.3 312.718C616.2 312.718 623.8 313.018 627.3 313.418L633.6 314.018L632.9 328.518C632.6 336.518 632 343.318 631.7 343.618C631.4 343.918 624.1 344.318 615.5 344.518C602.9 344.818 599.5 345.218 598.1 346.418C595.9 348.418 595.8 350.618 597.9 353.518C599.4 355.618 600 355.718 615.4 355.718H631.3V365.218L617.7 372.718C597.7 383.818 596.3 384.918 596.3 389.618C596.3 396.218 597.7 396.718 615.2 396.718H630.5L629.9 403.418C629.6 407.218 629.1 416.918 628.8 425.218C628 444.218 625.7 489.618 623.8 523.218L622.3 549.218L625.2 563.218C627.2 572.918 628.3 576.618 628.8 575.218C629.3 574.118 630.2 571.618 631 569.718C631.8 567.818 632.8 561.118 633.2 555.018C633.6 548.818 634.2 543.418 634.6 543.118C634.9 542.818 638.3 544.618 642 547.318C645.7 549.918 652.7 554.718 657.6 557.918C662.4 561.118 666.3 563.918 666.3 564.118C666.3 564.618 637.9 590.418 634.1 593.418C631.1 595.618 630.6 599.018 632.1 606.918L632.8 610.618L641.9 602.418C647 597.918 655.5 590.218 660.9 585.318C666.3 580.518 670.8 576.918 671 577.318C671.4 578.818 674.3 613.618 674.3 617.318V620.718H497.3V552.718H369.4V583.418C369.4 600.418 369.4 615.718 369.4 617.418L369.3 620.718H351.3V569.718C351.3 541.618 351.1 518.718 350.9 518.718C350.2 518.718 312.5 506.818 282.8 497.218C194.8 468.818 197.8 469.718 194.7 470.618C193.1 471.118 174.7 478.618 153.8 487.218C132.9 495.918 107.3 506.418 96.8 510.718C86.4 515.018 76.1 519.218 74.1 520.118L70.3 521.718L70.1 540.018L69.8 558.218L52.3 558.818V510.618L58.5 507.818C62 506.318 73.7 501.518 84.6 497.218L104.3 489.218V394.718H73.4C49.6 394.718 42.4 395.018 42.1 395.918C41.9 396.618 41.8 447.518 41.8 508.918C41.8 570.418 41.6 620.718 41.3 620.818C41 620.818 37.5 621.018 33.4 621.218C23 621.818 17.2 624.018 10.9 629.818C4.4 635.718 1.4 642.218 0.6 651.818L0 658.718H714.6L713.9 651.918C712.6 639.418 705.8 629.018 695.8 624.218C692.8 622.818 689.7 621.718 688.9 621.718C688.1 621.718 687.2 621.318 686.9 620.918C685.8 619.018 673 452.718 670.7 409.418L670 396.718H683.5C696.3 396.718 697.1 396.618 699.1 394.418C702.3 391.018 701.9 387.418 698.1 384.218C696.3 382.718 689 378.018 681.8 373.818L668.8 366.218L668.3 360.918L667.7 355.718H682.4C697.1 355.718 697.2 355.718 699.2 353.118C701.7 349.918 701.8 349.518 699.5 346.718C697.8 344.618 697 344.518 683.3 344.618C675.3 344.718 668.3 344.418 667.7 343.918C666.6 343.218 664.1 315.018 665 313.418C665.2 313.018 672.7 312.718 681.7 312.718C696.2 312.718 698.2 312.518 699.6 310.918C702 308.218 701.7 304.018 698.9 301.418C696.9 299.518 683.2 291.418 668.1 283.018C665.9 281.818 664 280.718 663.7 280.518C663.4 280.118 660.3 254.118 660.3 251.618C660.3 251.118 655.4 250.718 649.4 250.718C639.8 250.718 638.4 250.918 637.9 252.418ZM650.3 265.618C650.3 267.218 650.6 269.918 650.9 271.618C651.5 274.318 651.3 274.718 649.3 274.718C647.7 274.718 647.3 274.318 647.7 273.118C648 272.218 648.3 269.518 648.3 267.118C648.3 264.718 648.8 262.718 649.3 262.718C649.9 262.718 650.3 264.018 650.3 265.618ZM652.3 294.718V301.718H646.3V295.318C646.3 288.818 646.8 287.918 650.6 287.818C652.1 287.718 652.3 288.718 652.3 294.718ZM634 301.418C633.7 301.618 631.1 301.718 628.2 301.518L622.8 301.218L633.8 294.818L634.1 297.818C634.3 299.518 634.2 301.118 634 301.418ZM670.8 297.818C673.8 299.518 676.3 301.118 676.3 301.318C676.3 301.518 673.6 301.718 670.3 301.718H664.3V298.218C664.3 296.318 664.5 294.718 664.8 294.718C665.1 294.718 667.8 296.118 670.8 297.818ZM653.1 318.418L653.4 323.718H645.3V318.918C645.3 313.118 645.8 312.518 649.8 312.918C652.7 313.218 652.8 313.418 653.1 318.418ZM654.3 343.718H649.3C644.3 343.718 644.3 343.718 644.3 340.418C644.3 336.118 644.8 335.718 650 335.718H654.3V343.718ZM655.3 357.818C655.3 359.818 654.9 359.918 649.7 359.418C646.6 359.118 643.9 358.618 643.6 358.318C642.2 356.918 645 355.718 649.9 355.718C654.8 355.718 655.3 355.918 655.3 357.818ZM656.7 374.318C657 375.218 657.3 377.918 657.3 380.318V384.718H642.3V372.718H649.2C654.6 372.718 656.2 373.118 656.7 374.318ZM630 384.418C629.7 384.618 627.5 384.718 625.2 384.518L620.8 384.218L625.3 381.718L629.8 379.118L630.1 381.518C630.3 382.818 630.2 384.118 630 384.418ZM678.3 385.018C678.3 385.518 676.4 385.718 674.1 385.518C670.2 385.218 669.8 384.918 669.5 382.518L669.2 379.718L673.7 382.018C676.2 383.218 678.2 384.618 678.3 385.018ZM654.6 397.918C654.1 398.618 651 402.518 647.7 406.518L641.8 413.818L641.5 406.618C641.3 402.618 641.4 398.818 641.7 398.018C642.1 397.118 644.2 396.718 648.9 396.718C654.1 396.718 655.3 397.018 654.6 397.918ZM661.3 437.418C662 448.118 662.4 457.018 662.1 457.218C661.5 457.818 639.3 435.318 639.3 434.018C639.3 433.518 643.7 428.218 649 422.318L658.8 411.618L659.5 414.818C659.8 416.618 660.7 426.818 661.3 437.418ZM662 480.218C659.5 483.918 637.1 509.818 636.7 509.418C636.5 509.218 638.9 454.618 639.2 452.718C639.3 452.418 644.9 457.818 651.7 464.618L664.2 477.018L662 480.218ZM665.7 503.418C666.8 514.518 669.1 550.218 668.8 550.518C668.5 550.818 641.3 533.018 638.1 530.418C637.1 529.618 636.3 528.518 636.3 528.018C636.3 527.518 640.9 522.018 646.6 515.818C652.2 509.618 658.4 502.818 660.3 500.718C662.2 498.518 664.1 496.818 664.4 496.718C664.8 496.718 665.4 499.718 665.7 503.418ZM159.3 536.818L132.8 536.218L132.2 509.718H159.3V536.818ZM208.3 536.718H181.3V509.718H208.3V536.718ZM258.3 536.718H231.3V509.718H258.3V536.718ZM157.6 549.318C159.1 549.818 159.3 551.618 159.3 562.318V574.718H132.5L132.4 562.718C132.3 556.118 132.4 550.318 132.7 549.818C133.4 548.818 155.1 548.318 157.6 549.318ZM208.3 574.718H181.3V562.318C181.3 553.318 181.6 549.718 182.6 549.318C183.2 549.018 189.3 548.818 196.1 548.918L208.3 549.018V574.718ZM250.1 549.418L258.3 550.018V574.718H231.3V548.718H236.6C239.4 548.718 245.5 549.018 250.1 549.418ZM305.8 575.218L279.3 575.818V548.618L292.8 548.818L306.4 548.918L305.8 575.218ZM425.3 606.718H397.3V572.718H425.3V606.718ZM472.3 606.718H444.3V572.718H472.3V606.718ZM149.6 587.618L159.3 587.718V613.718H133.6L132.9 610.618C132.2 607.018 132.1 588.318 132.8 587.618C133 587.318 134.7 587.218 136.5 587.318C138.3 587.418 144.2 587.518 149.6 587.618ZM199.6 587.718H208.3V613.718H181.3V600.818C181.3 586.618 181.4 586.518 187.3 587.218C189.2 587.518 194.7 587.718 199.6 587.718ZM247.9 587.718H258.3V613.718H231.3V586.418L234.4 587.118C236.1 587.418 242.2 587.718 247.9 587.718Z" fill="url(#paint7_linear_2540_3983)"/>
<path d="M126.9 295.918C126.2 309.118 123.3 391.418 123.3 398.918V404.718H178.3V401.418C178.3 395.818 175.4 313.818 174.7 299.418L174 285.718H127.5L126.9 295.918Z" fill="url(#paint8_linear_2540_3983)"/>
<path d="M122.3 451.318C122.3 475.418 122.6 481.818 123.6 481.418C124.2 481.218 140.9 474.418 160.5 466.318C180.2 458.318 197 451.718 198 451.718C200.1 451.718 210.5 454.818 242.3 465.018C276.9 476.118 291.9 480.718 293.2 480.718C294 480.718 294.3 472.418 294.3 450.718V420.718H122.3V451.318Z" fill="url(#paint9_linear_2540_3983)"/>
<defs>
<linearGradient id="paint0_linear_2540_3983" x1="318.344" y1="40.4916" x2="318.344" y2="658.717" gradientUnits="userSpaceOnUse">
<stop offset="0.38" stop-color="#8C21F8"/>
<stop offset="0.66" stop-color="#A958FA"/>
</linearGradient>
<linearGradient id="paint1_linear_2540_3983" x1="318.344" y1="40.4916" x2="318.344" y2="658.717" gradientUnits="userSpaceOnUse">
<stop offset="0.38" stop-color="#8C21F8"/>
<stop offset="0.66" stop-color="#A958FA"/>
</linearGradient>
<linearGradient id="paint2_linear_2540_3983" x1="318.344" y1="40.4916" x2="318.344" y2="658.717" gradientUnits="userSpaceOnUse">
<stop offset="0.38" stop-color="#8C21F8"/>
<stop offset="0.66" stop-color="#A958FA"/>
</linearGradient>
<linearGradient id="paint3_linear_2540_3983" x1="318.344" y1="40.4916" x2="318.344" y2="658.717" gradientUnits="userSpaceOnUse">
<stop offset="0.38" stop-color="#8C21F8"/>
<stop offset="0.66" stop-color="#A958FA"/>
</linearGradient>
<linearGradient id="paint4_linear_2540_3983" x1="318.344" y1="40.4916" x2="318.344" y2="658.717" gradientUnits="userSpaceOnUse">
<stop offset="0.38" stop-color="#8C21F8"/>
<stop offset="0.66" stop-color="#A958FA"/>
</linearGradient>
<linearGradient id="paint5_linear_2540_3983" x1="318.344" y1="40.4916" x2="318.344" y2="658.717" gradientUnits="userSpaceOnUse">
<stop offset="0.38" stop-color="#8C21F8"/>
<stop offset="0.66" stop-color="#A958FA"/>
</linearGradient>
<linearGradient id="paint6_linear_2540_3983" x1="318.344" y1="40.4916" x2="318.344" y2="658.717" gradientUnits="userSpaceOnUse">
<stop offset="0.38" stop-color="#8C21F8"/>
<stop offset="0.66" stop-color="#A958FA"/>
</linearGradient>
<linearGradient id="paint7_linear_2540_3983" x1="318.344" y1="40.4916" x2="318.344" y2="658.717" gradientUnits="userSpaceOnUse">
<stop offset="0.38" stop-color="#8C21F8"/>
<stop offset="0.66" stop-color="#A958FA"/>
</linearGradient>
<linearGradient id="paint8_linear_2540_3983" x1="318.344" y1="40.4916" x2="318.344" y2="658.717" gradientUnits="userSpaceOnUse">
<stop offset="0.38" stop-color="#8C21F8"/>
<stop offset="0.66" stop-color="#A958FA"/>
</linearGradient>
<linearGradient id="paint9_linear_2540_3983" x1="318.344" y1="40.4916" x2="318.344" y2="658.717" gradientUnits="userSpaceOnUse">
<stop offset="0.38" stop-color="#8C21F8"/>
<stop offset="0.66" stop-color="#A958FA"/>
</linearGradient>
</defs>
</svg>
