<svg width="461" height="300" viewBox="0 0 461 300" fill="none" xmlns="http://www.w3.org/2000/svg">
<path d="M279.259 126.979H292.303V145.574H279.259V173.358C279.259 181.731 284.922 185.851 294.418 184V198.3C274.853 204.822 259.539 196.316 259.693 173.49V98.9092H279.259V126.979ZM44.6514 142.424H41.1699C40.1011 142.489 39.4855 143.246 39.4736 143.261C38.8347 144.076 38.9011 144.891 38.9893 145.288L47.1416 167.651C47.1416 167.651 47.714 169.26 49.3662 169.26H49.4111C51.0632 169.259 51.6357 167.651 51.6357 167.651L59.7881 145.288C59.8762 144.913 59.9426 144.076 59.3037 143.261C59.2929 143.248 58.6557 142.49 57.6074 142.424H54.126V126.957H84.8398L58.5986 200.415H40.0244L13.9375 126.957H44.6514V142.424ZM346.923 200.415H327.203V126.957H346.923V200.415ZM446.996 200.415H416.282V184.926H419.764C420.829 184.861 421.444 184.109 421.46 184.089C422.099 183.274 422.033 182.436 421.945 182.062L413.793 159.698C413.793 159.698 413.22 158.09 411.567 158.09H411.523C409.871 158.09 409.32 159.698 409.32 159.698L401.168 182.062C401.08 182.436 401.013 183.274 401.652 184.089C401.664 184.102 402.301 184.86 403.349 184.926H406.83V200.415H376.116L402.357 126.957H420.932L446.996 200.415ZM218.25 172.983C218.25 178.514 221.93 183.053 230.016 183.053V199.93C208.467 203.191 198.53 189.001 198.53 172.983V98.8867H218.25V172.983ZM137.19 124.269C151.798 124.423 166.538 133.06 166.538 150.51V174.306C166.538 192.042 151.798 200.26 137.19 200.393C122.45 200.26 107.688 192.042 107.688 174.306V150.51C107.689 133.038 122.428 124.401 137.19 124.269ZM137.168 143.283C132.497 143.283 127.386 145.839 127.386 150.51V174.746C127.386 179.417 132.497 182.679 137.168 182.679C141.707 182.679 146.818 179.417 146.818 174.746V150.51C146.818 145.817 141.707 143.283 137.168 143.283Z" fill="url(#paint0_linear_618_2077)"/>
<defs>
<linearGradient id="paint0_linear_618_2077" x1="13.9375" y1="98.8867" x2="30.8869" y2="245.943" gradientUnits="userSpaceOnUse">
<stop stop-color="#8F4519"/>
<stop offset="1" stop-color="#D09974"/>
</linearGradient>
</defs>
</svg>
