<svg width="600" height="300" viewBox="0 0 600 300" fill="none" xmlns="http://www.w3.org/2000/svg">
<path d="M299.657 185.938H281.439L268.531 131.202H282.256L288.873 162.246L290.752 174.255H291.651L294.183 162.246L303.333 131.202H321.551L330.619 162.246L333.151 174.255H334.05L335.929 162.246L342.546 131.202H355.944L342.955 185.938H324.737L316.568 158.57L312.728 142.803H311.829L307.99 158.57L299.657 185.938ZM401.511 185.938H390.074V176.216L389.42 176.053V161.756C389.42 159.087 388.739 157.29 387.378 156.364C386.071 155.438 383.783 154.975 380.515 154.975C377.411 154.975 375.178 155.438 373.817 156.364C372.455 157.29 371.774 158.924 371.774 161.266V161.593H359.438V161.348C359.438 157.971 360.337 155.003 362.134 152.443C363.932 149.829 366.464 147.814 369.732 146.398C373.054 144.927 376.948 144.192 381.414 144.192C385.989 144.192 389.747 144.927 392.688 146.398C395.683 147.868 397.889 149.938 399.305 152.606C400.776 155.221 401.511 158.325 401.511 161.919V185.938ZM372.755 186.754C368.343 186.754 364.885 185.774 362.379 183.813C359.874 181.853 358.621 179.184 358.621 175.807C358.621 173.738 359.112 171.968 360.092 170.497C361.072 169.027 362.543 167.856 364.503 166.984C366.464 166.059 368.915 165.432 371.856 165.106L390.237 163.227V170.252L375.205 171.968C373.735 172.077 372.646 172.376 371.938 172.866C371.284 173.302 370.957 174.01 370.957 174.99C370.957 176.08 371.393 176.869 372.264 177.36C373.136 177.85 374.47 178.095 376.267 178.095C379.208 178.095 381.632 177.823 383.538 177.278C385.444 176.733 386.888 175.862 387.868 174.664C388.903 173.411 389.42 171.75 389.42 169.68L390.564 169.599V176.543H389.42C388.494 179.702 386.615 182.207 383.783 184.059C381.006 185.856 377.329 186.754 372.755 186.754ZM436.56 185.938H426.43C421.637 185.938 417.879 184.767 415.156 182.425C412.433 180.083 411.072 176.325 411.072 171.151V137.084H423.326V169.762C423.326 171.832 423.761 173.22 424.633 173.928C425.559 174.582 427.084 174.909 429.208 174.909H436.56V185.938ZM436.56 155.139H404.618V145.009H436.56V155.139ZM469.988 185.938H459.858C455.065 185.938 451.307 184.767 448.584 182.425C445.861 180.083 444.499 176.325 444.499 171.151V137.084H456.753V169.762C456.753 171.832 457.189 173.22 458.06 173.928C458.986 174.582 460.511 174.909 462.635 174.909H469.988V185.938ZM469.988 155.139H438.045V145.009H469.988V155.139ZM486.831 185.938H474.577V145.009H486.831V185.938ZM486.831 140.842H474.577V131.202H486.831V140.842ZM523.717 185.938H508.604L489.978 145.009H503.621L515.875 174.01H516.692L529.028 145.009H542.425L523.717 185.938ZM586.998 185.938H575.561V176.216L574.907 176.053V161.756C574.907 159.087 574.226 157.29 572.865 156.364C571.558 155.438 569.27 154.975 566.002 154.975C562.898 154.975 560.665 155.438 559.304 156.364C557.942 157.29 557.261 158.924 557.261 161.266V161.593H544.925V161.348C544.925 157.971 545.824 155.003 547.621 152.443C549.419 149.829 551.951 147.814 555.219 146.398C558.541 144.927 562.435 144.192 566.901 144.192C571.476 144.192 575.234 144.927 578.175 146.398C581.17 147.868 583.376 149.938 584.792 152.606C586.263 155.221 586.998 158.325 586.998 161.919V185.938ZM558.242 186.754C553.83 186.754 550.372 185.774 547.866 183.813C545.361 181.853 544.108 179.184 544.108 175.807C544.108 173.738 544.599 171.968 545.579 170.497C546.559 169.027 548.03 167.856 549.99 166.984C551.951 166.059 554.402 165.432 557.343 165.106L575.724 163.227V170.252L560.692 171.968C559.222 172.077 558.133 172.376 557.425 172.866C556.771 173.302 556.444 174.01 556.444 174.99C556.444 176.08 556.88 176.869 557.751 177.36C558.623 177.85 559.957 178.095 561.754 178.095C564.695 178.095 567.119 177.823 569.025 177.278C570.931 176.733 572.375 175.862 573.355 174.664C574.39 173.411 574.907 171.75 574.907 169.68L576.051 169.599V176.543H574.907C573.981 179.702 572.102 182.207 569.27 184.059C566.493 185.856 562.816 186.754 558.242 186.754Z" fill="#F5EAFE"/>
<path d="M126.625 256.631C117.572 252.307 97.6818 249.929 90.5469 275.008H137.841V219.877L126.625 225.147V256.631Z" fill="url(#paint0_linear_617_2060)"/>
<path d="M169.206 257.041C177.949 252.844 197.157 250.536 204.047 274.878H158.375V185.715L169.206 203.666V257.041Z" fill="url(#paint1_linear_617_2060)"/>
<path d="M286.599 19L49.4609 138.267L114.011 168.843L10.1484 281.441L239.714 172.241L171.281 141.179L286.599 19Z" fill="url(#paint2_linear_617_2060)"/>
<path d="M127.57 170.285H146.488V178.392H127.57V170.285Z" fill="#27153C"/>
<path d="M159.992 170.285H178.91V178.392H159.992V170.285Z" fill="#27153C"/>
<path d="M121.617 170.285C122.698 182.852 142.967 195.419 150.128 170.285H146.48C142.156 184.068 131.616 176.906 130.805 170.285H121.617Z" fill="#F5EAFE"/>
<path d="M154.047 170.285C155.128 182.852 175.397 195.419 182.559 170.285H178.91C174.586 184.068 164.046 176.906 163.236 170.285H154.047Z" fill="#F5EAFE"/>
<path d="M123.375 158.261L147.563 161.504V153.937L123.375 149.883V158.261Z" fill="#F5EAFE"/>
<path d="M157.031 160.017L181.219 163.259V155.692L157.031 151.639V160.017Z" fill="#F5EAFE"/>
<defs>
<linearGradient id="paint0_linear_617_2060" x1="114.194" y1="219.877" x2="114.194" y2="275.008" gradientUnits="userSpaceOnUse">
<stop offset="0.38" stop-color="#8C21F8"/>
<stop offset="0.66" stop-color="#A958FA"/>
</linearGradient>
<linearGradient id="paint1_linear_617_2060" x1="181.211" y1="185.715" x2="181.211" y2="274.878" gradientUnits="userSpaceOnUse">
<stop offset="0.38" stop-color="#8C21F8"/>
<stop offset="0.66" stop-color="#A958FA"/>
</linearGradient>
<linearGradient id="paint2_linear_617_2060" x1="133.303" y1="35.1324" x2="133.303" y2="281.441" gradientUnits="userSpaceOnUse">
<stop offset="0.38" stop-color="#8C21F8"/>
<stop offset="0.66" stop-color="#A958FA"/>
</linearGradient>
</defs>
</svg>
