<svg width="1068" height="187" viewBox="0 0 1068 187" fill="none" xmlns="http://www.w3.org/2000/svg">
<path d="M104.372 183.547H43.2817L-0.00218738 0.00113923H46.0212L68.2111 104.102L74.5119 144.372H77.5253L86.0178 104.102L116.7 0.00113923H177.791L208.199 104.102L216.691 144.372H219.705L226.006 104.102L248.195 0.00113923H293.123L249.565 183.547H188.475L161.08 91.774L148.204 38.9019H145.191L132.315 91.774L104.372 183.547ZM445.924 183.547H407.572V150.947L405.38 150.399V102.458C405.38 93.509 403.097 87.4821 398.531 84.3774C394.148 81.2726 386.478 79.7203 375.52 79.7203C365.11 79.7203 357.622 81.2726 353.056 84.3774C348.49 87.4821 346.207 92.9611 346.207 100.814V101.91H304.841V101.088C304.841 89.765 307.854 79.8116 313.881 71.2278C319.908 62.4615 328.4 55.7041 339.358 50.9556C350.499 46.0245 363.557 43.559 378.533 43.559C393.874 43.559 406.476 46.0245 416.338 50.9556C426.383 55.8867 433.779 62.8267 438.528 71.7757C443.459 80.5421 445.924 90.9522 445.924 103.006V183.547ZM349.494 186.286C334.701 186.286 323.104 182.999 314.703 176.424C306.302 169.849 302.101 160.9 302.101 149.577C302.101 142.637 303.745 136.702 307.032 131.771C310.32 126.839 315.251 122.913 321.826 119.991C328.4 116.886 336.619 114.786 346.481 113.69L408.12 107.389V130.949L357.713 136.702C352.782 137.067 349.129 138.071 346.755 139.715C344.563 141.176 343.468 143.55 343.468 146.838C343.468 150.49 344.929 153.139 347.851 154.782C350.773 156.426 355.247 157.248 361.274 157.248C371.136 157.248 379.264 156.335 385.656 154.508C392.048 152.682 396.888 149.76 400.175 145.742C403.645 141.541 405.38 135.971 405.38 129.031L409.215 128.757V152.043H405.38C402.275 162.635 395.974 171.037 386.478 177.246C377.163 183.273 364.836 186.286 349.494 186.286ZM563.457 183.547H529.487C513.416 183.547 500.814 179.62 491.683 171.767C482.551 163.914 477.985 151.312 477.985 133.962V19.7254H519.077V129.305C519.077 136.245 520.538 140.902 523.461 143.276C526.565 145.468 531.679 146.564 538.802 146.564H563.457V183.547ZM563.457 80.2682H456.343V46.2985H563.457V80.2682ZM675.551 183.547H641.582C625.51 183.547 612.908 179.62 603.777 171.767C594.645 163.914 590.079 151.312 590.079 133.962V19.7254H631.172V129.305C631.172 136.245 632.633 140.902 635.555 143.276C638.66 145.468 643.773 146.564 650.896 146.564H675.551V183.547ZM675.551 80.2682H568.437V46.2985H675.551V80.2682ZM732.034 183.547H690.942V46.2985H732.034V183.547ZM732.034 32.3271H690.942V0.00113923H732.034V32.3271ZM855.726 183.547H805.046L742.585 46.2985H788.335L829.427 143.55H832.167L873.533 46.2985H918.461L855.726 183.547ZM1067.93 183.547H1029.57V150.947L1027.38 150.399V102.458C1027.38 93.509 1025.1 87.4821 1020.53 84.3774C1016.15 81.2726 1008.48 79.7203 997.523 79.7203C987.113 79.7203 979.625 81.2726 975.059 84.3774C970.493 87.4821 968.21 92.9611 968.21 100.814V101.91H926.844V101.088C926.844 89.765 929.857 79.8116 935.884 71.2278C941.911 62.4615 950.403 55.7041 961.361 50.9556C972.502 46.0245 985.56 43.559 1000.54 43.559C1015.88 43.559 1028.48 46.0245 1038.34 50.9556C1048.39 55.8867 1055.78 62.8267 1060.53 71.7757C1065.46 80.5421 1067.93 90.9522 1067.93 103.006V183.547ZM971.498 186.286C956.704 186.286 945.107 182.999 936.706 176.424C928.305 169.849 924.104 160.9 924.104 149.577C924.104 142.637 925.748 136.702 929.035 131.771C932.323 126.839 937.254 122.913 943.829 119.991C950.403 116.886 958.622 114.786 968.484 113.69L1030.12 107.389V130.949L979.716 136.702C974.785 137.067 971.132 138.071 968.758 139.715C966.566 141.176 965.471 143.55 965.471 146.838C965.471 150.49 966.932 153.139 969.854 154.782C972.776 156.426 977.25 157.248 983.277 157.248C993.139 157.248 1001.27 156.335 1007.66 154.508C1014.05 152.682 1018.89 149.76 1022.18 145.742C1025.65 141.541 1027.38 135.971 1027.38 129.031L1031.22 128.757V152.043H1027.38C1024.28 162.635 1017.98 171.037 1008.48 177.246C999.166 183.273 986.839 186.286 971.498 186.286Z" fill="#F5EAFE"/>
</svg>
